<mxfile host="65bd71144e">
    <diagram id="ONgLlP4N_q6dtPXhDEXq" name="Page-1">
        <mxGraphModel dx="1204" dy="790" grid="1" gridSize="10" guides="1" tooltips="1" connect="1" arrows="1" fold="1" page="1" pageScale="1" pageWidth="827" pageHeight="1169" math="0" shadow="0">
            <root>
                <mxCell id="0"/>
                <mxCell id="1" parent="0"/>
                <mxCell id="9" value="&lt;p style=&quot;margin: 0px ; margin-top: 4px ; text-align: center&quot;&gt;&amp;lt;&amp;lt;requirement&amp;gt;&amp;gt;&lt;br&gt;&lt;b&gt;Récupération des paramètres d'essai&lt;/b&gt;&lt;/p&gt;&lt;hr&gt;&lt;p style=&quot;margin: 0px ; margin-left: 8px ; text-align: left&quot;&gt;text=&quot;Permet à partir du numéro d'affaire de récupérer dans la BD Essais le mode opératoire et de sélectionner un essai parmi ceux prévu par le contrôleur&quot;&lt;br&gt;Id=&quot;1&quot;&lt;/p&gt;" style="shape=rect;html=1;overflow=fill;whiteSpace=wrap;" vertex="1" parent="1">
                    <mxGeometry x="60" y="190" width="200" height="150" as="geometry"/>
                </mxCell>
                <mxCell id="10" value="&lt;p style=&quot;margin: 0px ; margin-top: 4px ; text-align: center&quot;&gt;&amp;lt;&amp;lt;requirement&amp;gt;&amp;gt;&lt;br&gt;&lt;b&gt;Essai Unique&lt;/b&gt;&lt;/p&gt;&lt;hr&gt;&lt;p style=&quot;margin: 0px ; margin-left: 8px ; text-align: left&quot;&gt;text=&quot;Ne pas pouvoir faire 2 fois le même essai pour une même affaire.&quot;&lt;br&gt;Id=&quot;2&quot;&lt;/p&gt;" style="shape=rect;html=1;overflow=fill;whiteSpace=wrap;" vertex="1" parent="1">
                    <mxGeometry x="10" y="430" width="200" height="110" as="geometry"/>
                </mxCell>
                <mxCell id="11" value="&lt;p style=&quot;margin: 0px ; margin-top: 4px ; text-align: center&quot;&gt;&amp;lt;&amp;lt;requirement&amp;gt;&amp;gt;&lt;br&gt;&lt;b&gt;Identification Obligatoire&lt;/b&gt;&lt;/p&gt;&lt;hr&gt;&lt;p style=&quot;margin: 0px ; margin-left: 8px ; text-align: left&quot;&gt;text=&quot;Identification obligatoire du manipulateur.&quot;&lt;br&gt;Id=&quot;3&quot;&lt;/p&gt;" style="shape=rect;html=1;overflow=fill;whiteSpace=wrap;" vertex="1" parent="1">
                    <mxGeometry x="290" y="430" width="200" height="90" as="geometry"/>
                </mxCell>
                <mxCell id="12" value="&amp;lt;&amp;lt;refine&amp;gt;&amp;gt;&lt;br&gt;" style="edgeStyle=none;html=1;endArrow=open;endSize=12;dashed=1;verticalAlign=bottom;exitX=0.5;exitY=0;exitDx=0;exitDy=0;entryX=0.25;entryY=1;entryDx=0;entryDy=0;" edge="1" parent="1" source="10" target="9">
                    <mxGeometry x="-0.1111" y="40" width="160" relative="1" as="geometry">
                        <mxPoint x="90" y="390" as="sourcePoint"/>
                        <mxPoint x="250" y="390" as="targetPoint"/>
                        <mxPoint as="offset"/>
                    </mxGeometry>
                </mxCell>
            </root>
        </mxGraphModel>
    </diagram>
</mxfile>